<mxfile host="app.diagrams.net" modified="2023-10-09T23:42:29.227Z" agent="Mozilla/5.0 (Windows NT 10.0; Win64; x64) AppleWebKit/537.36 (KHTML, like Gecko) Chrome/117.0.0.0 Safari/537.36 Edg/117.0.2045.60" etag="JJaiMlT4X9sbVkqqDbD7" version="22.0.4" type="device">
  <diagram id="C5RBs43oDa-KdzZeNtuy" name="Page-1">
    <mxGraphModel dx="914" dy="719" grid="1" gridSize="10" guides="1" tooltips="1" connect="1" arrows="1" fold="1" page="1" pageScale="1" pageWidth="827" pageHeight="1169" math="0" shadow="0">
      <root>
        <mxCell id="WIyWlLk6GJQsqaUBKTNV-0" />
        <mxCell id="WIyWlLk6GJQsqaUBKTNV-1" parent="WIyWlLk6GJQsqaUBKTNV-0" />
        <mxCell id="JGHrKGWWWftF1b3FPlSX-21" style="edgeStyle=orthogonalEdgeStyle;rounded=0;orthogonalLoop=1;jettySize=auto;html=1;entryX=0.5;entryY=1;entryDx=0;entryDy=0;endArrow=none;endFill=0;startArrow=ERmandOne;startFill=0;" parent="WIyWlLk6GJQsqaUBKTNV-1" source="JGHrKGWWWftF1b3FPlSX-5" target="JGHrKGWWWftF1b3FPlSX-20" edge="1">
          <mxGeometry relative="1" as="geometry" />
        </mxCell>
        <mxCell id="JGHrKGWWWftF1b3FPlSX-5" value="produtora" style="rounded=1;whiteSpace=wrap;html=1;fontSize=12;glass=0;strokeWidth=1;shadow=0;" parent="WIyWlLk6GJQsqaUBKTNV-1" vertex="1">
          <mxGeometry x="220" y="880" width="120" height="40" as="geometry" />
        </mxCell>
        <mxCell id="JGHrKGWWWftF1b3FPlSX-26" style="edgeStyle=orthogonalEdgeStyle;rounded=0;orthogonalLoop=1;jettySize=auto;html=1;entryX=1;entryY=0.5;entryDx=0;entryDy=0;exitX=0.91;exitY=0.011;exitDx=0;exitDy=0;exitPerimeter=0;endArrow=none;endFill=0;startArrow=ERoneToMany;startFill=0;" parent="WIyWlLk6GJQsqaUBKTNV-1" source="JGHrKGWWWftF1b3FPlSX-13" target="JGHrKGWWWftF1b3FPlSX-25" edge="1">
          <mxGeometry relative="1" as="geometry">
            <mxPoint x="485" y="500.0000000000002" as="sourcePoint" />
            <Array as="points">
              <mxPoint x="534" y="670" />
              <mxPoint x="535" y="670" />
            </Array>
          </mxGeometry>
        </mxCell>
        <mxCell id="JGHrKGWWWftF1b3FPlSX-7" value="subtipo de midia" style="rounded=1;whiteSpace=wrap;html=1;fontSize=12;glass=0;strokeWidth=1;shadow=0;" parent="WIyWlLk6GJQsqaUBKTNV-1" vertex="1">
          <mxGeometry x="425" y="960" width="120" height="40" as="geometry" />
        </mxCell>
        <mxCell id="JGHrKGWWWftF1b3FPlSX-12" value="" style="rounded=0;html=1;jettySize=auto;orthogonalLoop=1;fontSize=11;endArrow=none;endFill=0;endSize=8;strokeWidth=1;shadow=0;labelBackgroundColor=none;edgeStyle=orthogonalEdgeStyle;entryX=0;entryY=0.5;entryDx=0;entryDy=0;startArrow=ERzeroToMany;startFill=0;" parent="WIyWlLk6GJQsqaUBKTNV-1" source="JGHrKGWWWftF1b3FPlSX-13" target="JGHrKGWWWftF1b3FPlSX-15" edge="1">
          <mxGeometry relative="1" as="geometry">
            <mxPoint x="475" y="800" as="targetPoint" />
          </mxGeometry>
        </mxCell>
        <mxCell id="JGHrKGWWWftF1b3FPlSX-27" style="edgeStyle=orthogonalEdgeStyle;rounded=0;orthogonalLoop=1;jettySize=auto;html=1;exitX=0.091;exitY=0.001;exitDx=0;exitDy=0;entryX=0;entryY=0.5;entryDx=0;entryDy=0;exitPerimeter=0;endArrow=none;endFill=0;startArrow=ERoneToMany;startFill=0;" parent="WIyWlLk6GJQsqaUBKTNV-1" source="JGHrKGWWWftF1b3FPlSX-13" target="JGHrKGWWWftF1b3FPlSX-25" edge="1">
          <mxGeometry relative="1" as="geometry">
            <Array as="points">
              <mxPoint x="435" y="701" />
            </Array>
          </mxGeometry>
        </mxCell>
        <mxCell id="JGHrKGWWWftF1b3FPlSX-31" value="" style="edgeStyle=orthogonalEdgeStyle;rounded=0;orthogonalLoop=1;jettySize=auto;html=1;startArrow=ERoneToMany;startFill=0;endArrow=none;endFill=0;" parent="WIyWlLk6GJQsqaUBKTNV-1" source="JGHrKGWWWftF1b3FPlSX-13" target="JGHrKGWWWftF1b3FPlSX-30" edge="1">
          <mxGeometry relative="1" as="geometry" />
        </mxCell>
        <mxCell id="JGHrKGWWWftF1b3FPlSX-13" value="midia" style="rounded=1;whiteSpace=wrap;html=1;fontSize=12;glass=0;strokeWidth=1;shadow=0;" parent="WIyWlLk6GJQsqaUBKTNV-1" vertex="1">
          <mxGeometry x="425" y="700" width="120" height="40" as="geometry" />
        </mxCell>
        <mxCell id="JGHrKGWWWftF1b3FPlSX-14" style="edgeStyle=orthogonalEdgeStyle;rounded=0;orthogonalLoop=1;jettySize=auto;html=1;entryX=0.5;entryY=0;entryDx=0;entryDy=0;endArrow=ERzeroToMany;endFill=0;" parent="WIyWlLk6GJQsqaUBKTNV-1" source="JGHrKGWWWftF1b3FPlSX-15" target="JGHrKGWWWftF1b3FPlSX-16" edge="1">
          <mxGeometry relative="1" as="geometry" />
        </mxCell>
        <mxCell id="JGHrKGWWWftF1b3FPlSX-15" value="agenda" style="rhombus;whiteSpace=wrap;html=1;shadow=0;fontFamily=Helvetica;fontSize=12;align=center;strokeWidth=1;spacing=6;spacingTop=-4;" parent="WIyWlLk6GJQsqaUBKTNV-1" vertex="1">
          <mxGeometry x="650" y="680" width="100" height="80" as="geometry" />
        </mxCell>
        <mxCell id="JGHrKGWWWftF1b3FPlSX-16" value="usuario" style="rounded=1;whiteSpace=wrap;html=1;fontSize=12;glass=0;strokeWidth=1;shadow=0;" parent="WIyWlLk6GJQsqaUBKTNV-1" vertex="1">
          <mxGeometry x="640" y="880" width="120" height="40" as="geometry" />
        </mxCell>
        <mxCell id="JGHrKGWWWftF1b3FPlSX-22" style="edgeStyle=orthogonalEdgeStyle;rounded=0;orthogonalLoop=1;jettySize=auto;html=1;entryX=0;entryY=0.5;entryDx=0;entryDy=0;endArrow=ERzeroToMany;endFill=0;" parent="WIyWlLk6GJQsqaUBKTNV-1" source="JGHrKGWWWftF1b3FPlSX-20" target="JGHrKGWWWftF1b3FPlSX-13" edge="1">
          <mxGeometry relative="1" as="geometry" />
        </mxCell>
        <mxCell id="JGHrKGWWWftF1b3FPlSX-20" value="produz" style="rhombus;whiteSpace=wrap;html=1;shadow=0;fontFamily=Helvetica;fontSize=12;align=center;strokeWidth=1;spacing=6;spacingTop=-4;" parent="WIyWlLk6GJQsqaUBKTNV-1" vertex="1">
          <mxGeometry x="230" y="680" width="100" height="80" as="geometry" />
        </mxCell>
        <mxCell id="JGHrKGWWWftF1b3FPlSX-25" value="possui mÃ­dia similar" style="rhombus;whiteSpace=wrap;html=1;shadow=0;fontFamily=Helvetica;fontSize=12;align=center;strokeWidth=1;spacing=6;spacingTop=-4;" parent="WIyWlLk6GJQsqaUBKTNV-1" vertex="1">
          <mxGeometry x="435" y="560" width="100" height="80" as="geometry" />
        </mxCell>
        <mxCell id="JGHrKGWWWftF1b3FPlSX-32" value="" style="edgeStyle=orthogonalEdgeStyle;rounded=0;orthogonalLoop=1;jettySize=auto;html=1;endArrow=ERoneToMany;endFill=0;" parent="WIyWlLk6GJQsqaUBKTNV-1" source="JGHrKGWWWftF1b3FPlSX-30" target="JGHrKGWWWftF1b3FPlSX-7" edge="1">
          <mxGeometry relative="1" as="geometry" />
        </mxCell>
        <mxCell id="JGHrKGWWWftF1b3FPlSX-30" value="possui" style="rhombus;whiteSpace=wrap;html=1;shadow=0;fontFamily=Helvetica;fontSize=12;align=center;strokeWidth=1;spacing=6;spacingTop=-4;" parent="WIyWlLk6GJQsqaUBKTNV-1" vertex="1">
          <mxGeometry x="435" y="810" width="100" height="80" as="geometry" />
        </mxCell>
        <mxCell id="2W-5SlNeTPKy2NSzzh3f-0" value="" style="shape=curlyBracket;whiteSpace=wrap;html=1;rounded=1;labelPosition=left;verticalLabelPosition=middle;align=right;verticalAlign=middle;" vertex="1" parent="WIyWlLk6GJQsqaUBKTNV-1">
          <mxGeometry x="770" y="840" width="20" height="120" as="geometry" />
        </mxCell>
        <mxCell id="2W-5SlNeTPKy2NSzzh3f-1" value="&lt;ul&gt;&lt;li&gt;Id&lt;/li&gt;&lt;li&gt;nome_usuario&lt;/li&gt;&lt;li&gt;senha&lt;/li&gt;&lt;li&gt;email&lt;/li&gt;&lt;/ul&gt;" style="text;strokeColor=none;fillColor=none;html=1;whiteSpace=wrap;verticalAlign=middle;overflow=hidden;" vertex="1" parent="WIyWlLk6GJQsqaUBKTNV-1">
          <mxGeometry x="780" y="860" width="120" height="80" as="geometry" />
        </mxCell>
        <mxCell id="2W-5SlNeTPKy2NSzzh3f-2" value="" style="shape=curlyBracket;whiteSpace=wrap;html=1;rounded=1;labelPosition=left;verticalLabelPosition=middle;align=right;verticalAlign=middle;" vertex="1" parent="WIyWlLk6GJQsqaUBKTNV-1">
          <mxGeometry x="550" y="920" width="20" height="120" as="geometry" />
        </mxCell>
        <mxCell id="2W-5SlNeTPKy2NSzzh3f-3" value="&lt;ul&gt;&lt;li&gt;id&lt;/li&gt;&lt;li&gt;nome_subtipo&lt;/li&gt;&lt;li&gt;descricao_subtipo&lt;/li&gt;&lt;/ul&gt;" style="text;strokeColor=none;fillColor=none;html=1;whiteSpace=wrap;verticalAlign=middle;overflow=hidden;" vertex="1" parent="WIyWlLk6GJQsqaUBKTNV-1">
          <mxGeometry x="560" y="940" width="170" height="80" as="geometry" />
        </mxCell>
        <mxCell id="2W-5SlNeTPKy2NSzzh3f-4" value="" style="shape=curlyBracket;whiteSpace=wrap;html=1;rounded=1;flipH=1;labelPosition=right;verticalLabelPosition=middle;align=left;verticalAlign=middle;" vertex="1" parent="WIyWlLk6GJQsqaUBKTNV-1">
          <mxGeometry x="190" y="840" width="20" height="120" as="geometry" />
        </mxCell>
        <mxCell id="2W-5SlNeTPKy2NSzzh3f-5" value="&lt;ul&gt;&lt;li&gt;id&lt;/li&gt;&lt;li&gt;nome_produtora&lt;/li&gt;&lt;li&gt;pais_origem&lt;/li&gt;&lt;li&gt;descricao&lt;/li&gt;&lt;li&gt;site_produtora&lt;/li&gt;&lt;/ul&gt;" style="text;strokeColor=none;fillColor=none;html=1;whiteSpace=wrap;verticalAlign=middle;overflow=hidden;" vertex="1" parent="WIyWlLk6GJQsqaUBKTNV-1">
          <mxGeometry x="50" y="855" width="150" height="90" as="geometry" />
        </mxCell>
        <mxCell id="2W-5SlNeTPKy2NSzzh3f-10" value="" style="shape=curlyBracket;whiteSpace=wrap;html=1;rounded=1;labelPosition=left;verticalLabelPosition=middle;align=right;verticalAlign=middle;" vertex="1" parent="WIyWlLk6GJQsqaUBKTNV-1">
          <mxGeometry x="770" y="660" width="20" height="120" as="geometry" />
        </mxCell>
        <mxCell id="2W-5SlNeTPKy2NSzzh3f-11" value="&lt;ul&gt;&lt;li&gt;datahora_agendamento&lt;/li&gt;&lt;/ul&gt;" style="text;strokeColor=none;fillColor=none;html=1;whiteSpace=wrap;verticalAlign=middle;overflow=hidden;" vertex="1" parent="WIyWlLk6GJQsqaUBKTNV-1">
          <mxGeometry x="780" y="680" width="180" height="80" as="geometry" />
        </mxCell>
        <mxCell id="2W-5SlNeTPKy2NSzzh3f-16" style="edgeStyle=orthogonalEdgeStyle;rounded=0;orthogonalLoop=1;jettySize=auto;html=1;exitX=0.1;exitY=0.5;exitDx=0;exitDy=0;exitPerimeter=0;entryX=1;entryY=0.25;entryDx=0;entryDy=0;" edge="1" parent="WIyWlLk6GJQsqaUBKTNV-1" source="2W-5SlNeTPKy2NSzzh3f-15" target="JGHrKGWWWftF1b3FPlSX-13">
          <mxGeometry relative="1" as="geometry" />
        </mxCell>
        <mxCell id="2W-5SlNeTPKy2NSzzh3f-15" value="" style="shape=curlyBracket;whiteSpace=wrap;html=1;rounded=1;labelPosition=left;verticalLabelPosition=middle;align=right;verticalAlign=middle;" vertex="1" parent="WIyWlLk6GJQsqaUBKTNV-1">
          <mxGeometry x="600" y="480" width="20" height="120" as="geometry" />
        </mxCell>
        <mxCell id="2W-5SlNeTPKy2NSzzh3f-17" value="&lt;ul&gt;&lt;li&gt;tiutulo&lt;/li&gt;&lt;li&gt;sinopse&lt;/li&gt;&lt;li&gt;data_lancamento&lt;/li&gt;&lt;li&gt;plataforma&lt;/li&gt;&lt;li&gt;url&lt;/li&gt;&lt;li&gt;tipo_midia&lt;/li&gt;&lt;/ul&gt;" style="text;strokeColor=none;fillColor=none;html=1;whiteSpace=wrap;verticalAlign=middle;overflow=hidden;" vertex="1" parent="WIyWlLk6GJQsqaUBKTNV-1">
          <mxGeometry x="610" y="470" width="170" height="140" as="geometry" />
        </mxCell>
      </root>
    </mxGraphModel>
  </diagram>
</mxfile>
